<svg xmlns="http://www.w3.org/2000/svg" xmlns:xlink="http://www.w3.org/1999/xlink" data-name="Layer 1" width="598" height="771" viewBox="0 0 598 771"><defs><linearGradient id="64b2f0c3-b8c6-416b-b34b-607e0141c58a-123" x1="299.55" y1="771" x2="299.55" y2="569.5" gradientUnits="userSpaceOnUse"><stop offset="0" stop-color="gray" stop-opacity="0.25"/><stop offset="0.54" stop-color="gray" stop-opacity="0.12"/><stop offset="1" stop-color="gray" stop-opacity="0.1"/></linearGradient><linearGradient id="fd25eb43-3afe-4a22-ac88-8c5d19f6538d-124" x1="301.36" y1="657.58" x2="301.36" y2="407.94" xlink:href="#64b2f0c3-b8c6-416b-b34b-607e0141c58a-123"/><linearGradient id="51278309-2317-4b46-9654-9b647c1f3ddc-125" x1="300.76" y1="547.78" x2="300.76" y2="314.44" xlink:href="#64b2f0c3-b8c6-416b-b34b-607e0141c58a-123"/><linearGradient id="21728ec6-81ec-47a9-bb13-976181664cc7-126" x1="299.55" y1="437.99" x2="299.55" y2="229.65" xlink:href="#64b2f0c3-b8c6-416b-b34b-607e0141c58a-123"/><linearGradient id="710714d6-afff-45b6-86fc-e6cf09bb492b-127" x1="299.55" y1="336.63" x2="299.55" y2="154.46" xlink:href="#64b2f0c3-b8c6-416b-b34b-607e0141c58a-123"/><linearGradient id="feca075f-a06b-4532-9429-3e58da5640dc-128" x1="300.76" y1="238.9" x2="300.76" y2="76.01" xlink:href="#64b2f0c3-b8c6-416b-b34b-607e0141c58a-123"/><linearGradient id="bcc8da3a-a8ff-4d7e-8337-e53162e1db7f-129" x1="601.76" y1="189.91" x2="601.76" y2="64.5" xlink:href="#64b2f0c3-b8c6-416b-b34b-607e0141c58a-123"/><linearGradient id="7315fb14-0d63-4903-85a6-ba21ce163236-130" x1="408" y1="285.37" x2="408" y2="221.37" xlink:href="#64b2f0c3-b8c6-416b-b34b-607e0141c58a-123"/><linearGradient id="2dff063f-5ae1-4ed3-afc3-5946cb216358-131" x1="730.75" y1="59.19" x2="730.75" y2="13.98" gradientTransform="translate(118.75 -114.94) rotate(33.39)" xlink:href="#64b2f0c3-b8c6-416b-b34b-607e0141c58a-123"/><linearGradient id="821f44f1-a638-41d3-86c4-6fa55275ab1a-132" x1="192" y1="284.37" x2="192" y2="220.37" xlink:href="#64b2f0c3-b8c6-416b-b34b-607e0141c58a-123"/><linearGradient id="ebbf8c66-3537-49f9-9828-9befcb118a16-133" x1="492.15" y1="335.49" x2="492.15" y2="300.79" xlink:href="#64b2f0c3-b8c6-416b-b34b-607e0141c58a-123"/><linearGradient id="8c5c9a82-7902-4e4b-aeb6-38c841f4a599-134" x1="489" y1="482.37" x2="489" y2="418.37" xlink:href="#64b2f0c3-b8c6-416b-b34b-607e0141c58a-123"/><linearGradient id="6572dd79-6866-4c62-adcd-5a75d6887bf1-135" x1="723.24" y1="473.87" x2="723.24" y2="430.23" gradientTransform="translate(-28.59 271.29) rotate(-15.31)" xlink:href="#64b2f0c3-b8c6-416b-b34b-607e0141c58a-123"/><linearGradient id="50a6bcbf-71f6-4f9f-9c70-5a56bbad7c5b-136" x1="154" y1="385.37" x2="154" y2="321.37" xlink:href="#64b2f0c3-b8c6-416b-b34b-607e0141c58a-123"/><linearGradient id="99ef0e19-a61d-4b08-8dcf-bd6568c02f1e-137" x1="445.85" y1="420.96" x2="445.85" y2="379" gradientTransform="translate(-7.76 38.03) rotate(-2.38)" xlink:href="#64b2f0c3-b8c6-416b-b34b-607e0141c58a-123"/><linearGradient id="12a5d3f8-5393-40ab-8b3e-aa3812c07f5a-138" x1="448" y1="383.37" x2="448" y2="319.37" xlink:href="#64b2f0c3-b8c6-416b-b34b-607e0141c58a-123"/><linearGradient id="5cbae585-c536-47b3-aa98-54e5047313c1-139" x1="729" y1="417.25" x2="773.16" y2="417.25" xlink:href="#64b2f0c3-b8c6-416b-b34b-607e0141c58a-123"/><linearGradient id="46765641-5247-48a6-b74b-53d6b54dbb16-140" x1="32" y1="709.37" x2="32" y2="645.37" xlink:href="#64b2f0c3-b8c6-416b-b34b-607e0141c58a-123"/><linearGradient id="794c57a5-8e00-4894-82bf-1880783379ee-141" x1="334.15" y1="763.49" x2="334.15" y2="728.79" xlink:href="#64b2f0c3-b8c6-416b-b34b-607e0141c58a-123"/><linearGradient id="d73e8d8b-f5de-4a7b-bc91-c12c41a143e7-142" x1="534" y1="602.37" x2="534" y2="538.37" xlink:href="#64b2f0c3-b8c6-416b-b34b-607e0141c58a-123"/><linearGradient id="a287f7cf-b981-4b46-a7a5-e3fe6ce30998-143" x1="816.52" y1="653.54" x2="816.52" y2="611.59" gradientTransform="translate(-7.76 38.03) rotate(-2.38)" xlink:href="#64b2f0c3-b8c6-416b-b34b-607e0141c58a-123"/><linearGradient id="e65766e7-ab8c-4f5b-bfd3-b9a7c5095d11-144" x1="113" y1="486.37" x2="113" y2="422.37" xlink:href="#64b2f0c3-b8c6-416b-b34b-607e0141c58a-123"/><linearGradient id="e76b2440-b096-46f5-bb61-246e4e471e19-145" x1="595.06" y1="389.36" x2="595.06" y2="344.16" gradientTransform="translate(118.75 -114.94) rotate(33.39)" xlink:href="#64b2f0c3-b8c6-416b-b34b-607e0141c58a-123"/><linearGradient id="668125a2-a642-4673-9f02-0f1ac728a50a-146" x1="64" y1="601.37" x2="64" y2="537.37" xlink:href="#64b2f0c3-b8c6-416b-b34b-607e0141c58a-123"/><linearGradient id="7fadd4d4-04c6-494c-a840-c0524248c3dc-147" x1="345" y1="635.25" x2="389.16" y2="635.25" xlink:href="#64b2f0c3-b8c6-416b-b34b-607e0141c58a-123"/><linearGradient id="74b358ee-2808-4d3e-a206-0b82a517d11a-148" x1="566" y1="709.37" x2="566" y2="645.37" xlink:href="#64b2f0c3-b8c6-416b-b34b-607e0141c58a-123"/><linearGradient id="823f05c8-15fb-4319-95da-2867774c7f73-149" x1="737.31" y1="714.1" x2="737.31" y2="670.46" gradientTransform="translate(-28.59 271.29) rotate(-15.31)" xlink:href="#64b2f0c3-b8c6-416b-b34b-607e0141c58a-123"/></defs><title>social_tree_1</title><rect x="265.77" y="569.5" width="67.57" height="201.5" fill="url(#64b2f0c3-b8c6-416b-b34b-607e0141c58a-123)"/><rect x="270.59" y="569.5" width="57.92" height="197.88" fill="#795548"/><polygon points="301.36 407.94 29.28 657.58 573.44 657.58 301.36 407.94" fill="url(#fd25eb43-3afe-4a22-ac88-8c5d19f6538d-124)"/><polygon points="301.36 414.49 40.14 650.9 562.59 650.9 301.36 414.49" fill="#009688"/><polygon points="300.76 314.44 64.27 547.78 537.25 547.78 300.76 314.44" fill="url(#51278309-2317-4b46-9654-9b647c1f3ddc-125)"/><polygon points="300.76 320.79 73.92 544.61 527.59 544.61 300.76 320.79" fill="#009688"/><polygon points="299.55 229.65 117.36 437.99 481.74 437.99 299.55 229.65" fill="url(#21728ec6-81ec-47a9-bb13-976181664cc7-126)"/><polygon points="299.55 239.16 125.81 433.23 473.3 433.23 299.55 239.16" fill="#009688"/><polygon points="299.55 154.46 163.21 336.63 435.89 336.63 299.55 154.46" fill="url(#710714d6-afff-45b6-86fc-e6cf09bb492b-127)"/><polygon points="299.55 159.84 169.24 333.95 429.86 333.95 299.55 159.84" fill="#009688"/><polygon points="300.76 76.01 206.72 238.9 394.8 238.9 300.76 76.01" fill="url(#feca075f-a06b-4532-9429-3e58da5640dc-128)"/><polygon points="300.76 80.84 210.9 236.49 390.62 236.49 300.76 80.84" fill="#009688"/></svg>